<?xml version="1.0" encoding="iso-8859-1"?>
<!-- Uploaded to: SVG Repo, www.svgrepo.com, Generator: SVG Repo Mixer Tools -->
<svg version="1.1" id="Capa_1" xmlns="http://www.w3.org/2000/svg" xmlns:xlink="http://www.w3.org/1999/xlink" 
	 viewBox="0 0 34.39 34.39" xml:space="preserve">
<g>
	<path style="fill:currentColor" d="M31.939,6.603H2.455C1.102,6.603,0,7.701,0,9.056v19.623c0,1.355,1.102,2.453,2.455,2.453h29.484
		c1.354,0,2.451-1.098,2.451-2.453V9.056C34.391,7.701,33.293,6.603,31.939,6.603z M12.455,28.171c-5.137,0-9.301-4.164-9.301-9.303
		s4.164-9.303,9.301-9.303c5.139,0,9.303,4.164,9.303,9.303S17.594,28.171,12.455,28.171z M30.654,11.814h-2.986
		c-0.891,0-1.611-0.721-1.611-1.607c0-0.891,0.721-1.611,1.611-1.611h2.986c0.887,0,1.609,0.721,1.609,1.611
		C32.264,11.094,31.541,11.814,30.654,11.814z"/>
	<rect x="3.449" y="3.257" style="fill:currentColor" width="7.053" height="2.561"/>
	<circle style="fill:currentColor" cx="12.357" cy="18.867" r="4.436"/>
</g>
</svg>
